<?xml version="1.0" encoding="UTF-8"?>
<svg id="Layer_1" xmlns="http://www.w3.org/2000/svg" viewBox="0 0 94.12 95.02">
  <defs>
    <style>
      .cls-1 {
        fill: #010101;
      }

      .cls-2 {
        fill: #606060;
      }
    </style>
  </defs>
  <path class="cls-2" d="M82.83,63.27c-.43-3.85-1.23-7.59-3.09-11.04-2.11-3.91-5.26-6.36-9.73-7-1.62-.23-3.11-.07-4.47.94-.74.55-1.55,1.03-2.34,1.52-.33.21-.67.4-1,.58.75.89,1.43,1.89,2.04,3.01,1.74,3.22,2.76,6.85,3.32,11.77.23,1.99.31,4.06.26,6.31-.1,4.76-2.48,8.74-6.2,10.98h11.09c.03-.15.15-.12.26-.13,5.83-.57,9.99-5.05,10.12-10.89.04-2.02-.02-4.03-.25-6.04Z"/>
  <path class="cls-2" d="M53.04,43.25c1.67.24,3.2.73,4.6,1.43,7.45-1.56,13.08-8.21,13.04-16.09-.05-9.13-7.4-16.44-16.48-16.39-2.35.01-4.57.52-6.59,1.41,4.68,3.33,7.76,8.8,7.8,14.97.03,4.89-1.87,9.51-5.35,13.01-.76.76-1.58,1.43-2.43,2.04.2.09.41.17.61.25,1-.49,2.09-.74,3.28-.74.48,0,.98.04,1.51.11Z"/>
  <path d="M65.82,69.32c.04-2.02-.02-4.03-.25-6.04-.43-3.85-1.23-7.59-3.09-11.04-2.11-3.91-5.26-6.36-9.73-7-.42-.06-.82-.09-1.22-.09-1.16,0-2.24.28-3.25,1.04-.74.55-1.55,1.03-2.34,1.52-2.84,1.75-5.68,2.63-8.52,2.63s-5.67-.87-8.5-2.61c-1-.61-1.97-1.27-2.97-1.89-.61-.38-1.26-.71-2-.71-.01,0-.03,0-.04,0-2.2.04-4.29.5-6.25,1.55-3.07,1.66-4.95,4.34-6.2,7.46-2.11,5.24-2.77,10.74-2.32,16.36.37,4.68,3.89,8.51,8.46,9.48.55.12,1.13.11,1.64.38h36.2c.03-.15.15-.12.26-.13,5.83-.57,9.99-5.05,10.12-10.89Z"/>
  <path class="cls-1" d="M20.58,28.63c.02,9.09,7.31,16.37,16.4,16.39.01,0,.03,0,.04,0,9.04,0,16.44-7.41,16.39-16.44-.05-9.1-7.35-16.39-16.38-16.39-.03,0-.06,0-.1,0-9.1.05-16.38,7.37-16.36,16.43Z"/>
</svg>