<?xml version="1.0" encoding="UTF-8"?>
<svg id="Layer_1" xmlns="http://www.w3.org/2000/svg" viewBox="0 0 94.12 95.02">
  <defs>
    <style>
      .cls-1 {
        fill: #595959;
      }
    </style>
  </defs>
  <rect x="15.9" y="16.69" width="27.94" height="27.94" rx="3.26" ry="3.26"/>
  <rect x="48.37" y="16.69" width="27.94" height="27.94" rx="3.26" ry="3.26"/>
  <rect x="15.9" y="49.05" width="27.94" height="27.94" rx="3.26" ry="3.26"/>
  <path class="cls-1" d="M73.05,49.05h-21.42c-1.8,0-3.26,1.46-3.26,3.26v21.42c0,1.8,1.46,3.26,3.26,3.26h21.42c1.8,0,3.26-1.46,3.26-3.26v-21.42c0-1.8-1.46-3.26-3.26-3.26ZM69.34,64.98h-5.29v5.29c0,.94-.76,1.71-1.71,1.71s-1.71-.76-1.71-1.71v-5.29h-5.29c-.94,0-1.71-.76-1.71-1.71s.76-1.71,1.71-1.71h5.29v-5.29c0-.94.76-1.71,1.71-1.71s1.71.76,1.71,1.71v5.29h5.29c.94,0,1.71.76,1.71,1.71s-.76,1.71-1.71,1.71Z"/>
</svg>