<?xml version="1.0" encoding="UTF-8"?>
<svg id="Layer_1" xmlns="http://www.w3.org/2000/svg" viewBox="0 0 94.12 95.02">
  <defs>
    <style>
      .cls-1 {
        fill: #020202;
      }

      .cls-2 {
        fill: #030303;
      }
    </style>
  </defs>
  <path d="M22.85,47.45h8.59v3.14h-8.59c-.87,0-1.57-.7-1.57-1.57h0c0-.87.7-1.57,1.57-1.57Z" transform="translate(-26.94 33) rotate(-45)"/>
  <g>
    <g>
      <path d="M39.67,83.83c0-2,0-4,0-6,.01-4.43,3-7.61,7.12-7.59,4.09.02,7.02,3.11,7.06,7.49.02,2.03.02,4.06.01,6.1h10.96c.41,0,.73-.33.73-.74-.01-4.31,0-8.61,0-12.92,0-5.62,0-11.24,0-16.87,0-.73-.02-1.36-.63-1.96-5.82-5.76-11.62-11.55-17.39-17.36-.65-.65-.98-.56-1.57.04-5.74,5.77-11.5,11.51-17.26,17.25-.45.45-.74.88-.74,1.58.02,10.08.02,20.16,0,30.25,0,.43.34.77.77.77,2.61-.02,10.94-.03,10.94-.03Z"/>
      <path class="cls-1" d="M66.52,46.07c-5.34-5.35-10.68-10.7-16.1-15.97-.94-.91-1.6-1.82-1.93-2.86-.62.08-1.25.13-1.92.13-.51,0-1.01-.03-1.49-.07-.16.71-.53,1.32-1.13,1.92-5.64,5.57-11.24,11.18-16.86,16.76.12,1.68-.03,3.39-.46,5.02,6.29-6.34,12.63-12.63,18.91-18.97.94-.95,1.39-1.08,2.41-.05,6.24,6.32,12.53,12.6,18.84,18.89-.34-1.57-.43-3.19-.26-4.79Z"/>
      <path d="M26.29,59.94c0,7.77-.01,15.28.02,22.78,0,.81-.08,1.16-1.03,1.15-3.85-.05-7.69-.04-11.54,0-.84,0-1.1-.18-1.09-1.09.06-4.84.03-9.68.02-14.52,0-.57,0-1.02.64-1.36,4.26-2.25,8.5-4.55,12.97-6.95Z"/>
      <path d="M67.21,59.94c4.46,2.39,8.71,4.68,12.97,6.93.62.33.67.76.67,1.36-.02,4.84-.04,9.69.02,14.53.01.91-.25,1.11-1.1,1.1-3.79-.04-7.59-.05-11.38,0-.92.01-1.21-.19-1.21-1.17.05-7.51.02-15.02.02-22.76Z"/>
      <path class="cls-2" d="M67.19,58.02l14.27,7.85c.75.41,1.69.14,2.09-.62h0c.4-.75.13-1.68-.62-2.08l-12.84-6.94c-1.33-.72-2.95.27-2.9,1.79h0Z"/>
      <path class="cls-2" d="M26.04,58.02l-14.27,7.85c-.75.41-1.69.14-2.09-.62h0c-.4-.75-.13-1.68.62-2.08l12.84-6.94c1.33-.72,2.95.27,2.9,1.79h0Z"/>
    </g>
    <path d="M63.67,47.4h8.59v3.19h-8.59c-.87,0-1.57-.7-1.57-1.57v-.05c0-.87.7-1.57,1.57-1.57Z" transform="translate(80.04 131.15) rotate(-135)"/>
    <path d="M46.78,12.08h0c.93,0,1.68.75,1.68,1.68v14.47h-3.37v-14.47c0-.93.75-1.68,1.68-1.68Z"/>
    <rect x="45.09" y="12.27" width="3.37" height="12.02" rx="1.68" ry="1.68" transform="translate(65.05 -28.5) rotate(90)"/>
  </g>
</svg>