<?xml version="1.0" encoding="UTF-8"?>
<svg id="Layer_1" data-name="Layer 1" xmlns="http://www.w3.org/2000/svg" viewBox="0 0 94.12 95.02">
  <path d="M52.11,59.84c-.9-.03-2.49.72-3.68.8-2.75.18-4.36-1.25-7.15-.37-3.82,1.19-7.03,5.17-7.26,9.19-.12,2.15-.16,5.35,0,7.48.03.46.14,1.05.44,1.41.66.77,2.96,1.32,3.99,1.55,5.2,1.13,12.38,1.01,17.62.05.31-.06,2.27-.45,2.37-.52.15-.1.08-.22.06-.35-.09-.47-.65-1.38-.86-1.94-1.64-4.48-1.01-9.27,1.68-13.18-1.39-2.07-4.69-4.03-7.22-4.12Z"/>
  <path d="M79.43,62.78c-6.34-5.19-16.67-2.59-19.26,5.32-3.13,9.54,5.41,18.26,15.02,15.52,9.17-2.61,11.57-14.83,4.24-20.84ZM80.09,68.09c-2.74,2.89-5.3,5.96-8.03,8.86-.87.92-1.89,2.2-3.34,1.57l-4.84-4.53c-.94-1.39,1.1-3.75,2.54-2.74l3.14,2.94,7.57-8.37c.39-.25.93-.37,1.34-.14.1.06,1.6,1.63,1.65,1.74.1.22.07.46-.02.67Z"/>
  <path d="M34.24,63.2c.12-.16.96-1.06.88-1.16-.96-.48-1.97.12-2.97.27-2.76.43-4.34-.97-7.27-.1-2.23.66-4.55,3.08-5.31,5.25-.74,2.11-.8,5.73-.6,7.98.02.2.14.81.25.94.12.14,2.58.74,2.96.82,1.92.39,4.73.67,6.7.78.34.02,2.54.03,2.65-.05.1-.07.09-.19.1-.3.39-3.27-.62-7.03.52-10.24.45-1.28,1.3-3.1,2.08-4.19Z"/>
  <path d="M46.56,43.93c-5.38.65-7.26,8.44-3.7,12.12,3.8,3.93,10.96,1.71,11.57-3.75.58-5.18-2.46-9.01-7.87-8.37Z"/>
  <path d="M30.12,48.71c-6.93.62-6.72,11.94,1.45,11.12,6.59-.66,6-11.79-1.45-11.12Z"/>
  <path d="M64.1,59.62c8.25.94,7.93-11.51.1-10.9-6.19.48-6.54,10.17-.1,10.9Z"/>
  <path d="M21.77,46.59c0,.17,0,.33,0,.5,0,.13,0,4.22,0,4.29.02.53,0,1.07,0,1.59-.02,2.69-.17,5.37-.1,8.07.87-.65,1.81-1.11,2.8-1.56.05-.24-.94-1.82-1.11-2.28-.8-2.15-.63-4.54.41-6.57.3-.59.66-1.14,1.08-1.65.19-.23.4-.48.6-.7.21-.22.49-.39.73-.58.27-.21.56-.4.86-.56.6-.33,1.26-.56,1.92-.71,1.91-.43,3.75-.11,5.46.8.42.22.94.46,1.25.83.42.51.89,1,1.27,1.55.25.36.89,1.75,1.02,1.87.14.12.41.16.56.06.11-.07.24-2.17.32-2.57,1.96-9.88,15.64-10.41,17.86-.08.08.37.24,2.38.34,2.45.1.07.23.06.34.03.26-.07,1.12-1.65,1.38-2.01.29-.39.98-1.28,1.28-1.56,3.52-3.31,9.49-1.13,11.54,2.86,1.1,2.14,1.02,4.27.73,6.6.51.21,1.09.04,1.58.11,0-2.06-.18-9.83-.06-10.67.15-.22,1.23.02,1.55-.19.44-.41.73-.53.7-1.24-.03-.66-.38-.88-.91-1.19-2.41-1.45-5.78-2.77-8.38-4.07-2.25-1.12-4.45-2.37-6.76-3.36,0-.03,0-.07,0-.1,0-1,0-1.99,0-2.99.36.03.65-.01,1-.1,1-.26,1.36-1.12.7-1.95-4.02-3.46-8.4-6.6-12.36-10.11-.1-.09-.33,0-.4-.35-.04-1.51.05-3.03,0-4.51h3.17c.66,0,1.2-.54,1.2-1.2s-.54-1.2-1.2-1.2h-3.17v-3.35c0-.1-.3-.49-.42-.58-.74-.54-1.61-.14-1.97.63v3.27s-.04.02-.05.03h-2.85c-.47,0-.88.28-1.08.69-.07.16-.12.33-.12.51,0,.66.54,1.2,1.2,1.2h2.91c0,.86,0,1.72,0,2.57,0,.43.02.87,0,1.3-.01.34.06.48-.1.8-.09.18-.43.36-.6.5-.09.07-.21.12-.3.2-.14.11-.25.16-.3.2-1.16.96-2.36,1.93-3.54,2.89-2.37,1.95-5.42,4.21-7.58,6.27-.78.74-.96,1.15-.15,2,.5.18.93.38,1.5.3-.02.93.02,1.86,0,2.79,0,.03,0,.07,0,.1-5.16,2.64-10.3,5.3-15.5,7.87-1.28,1.55,0,2.64,1.75,2.29ZM45.49,32.24c.24-4,4.29-3.75,4.58-.25.14,1.68-.1,3.53,0,5.23l-4.58.1c.07-1.67-.1-3.42,0-5.08Z"/>
</svg>