<?xml version="1.0" encoding="UTF-8"?>
<svg id="Layer_1" xmlns="http://www.w3.org/2000/svg" viewBox="0 0 94.12 95.02">
  <defs>
    <style>
      .cls-1 {
        fill: #010101;
      }
    </style>
  </defs>
  <path d="M24.68,59.27c1.36-3.37,3.35-5.72,6.08-7.2,1.27-.68,2.66-1.13,4.14-1.36-.64-.79-1.2-1.63-1.68-2.54-4.09,2.25-8.18,2.12-12.28-.39-.76-.47-1.51-.96-2.26-1.44-.48-.3-.98-.55-1.56-.54-1.68.03-3.27.38-4.76,1.18-2.34,1.26-3.77,3.31-4.72,5.68-1.61,4-2.11,8.19-1.77,12.47.28,3.56,2.96,6.49,6.45,7.23.42.09.86.08,1.25.29h9.11c-.32-4.77.35-9.28,2-13.38Z"/>
  <path class="cls-1" d="M38.45,27.99c-1.99-4.32-6.33-7.3-11.39-7.27-6.94.04-12.49,5.61-12.47,12.52.02,6.93,5.57,12.48,12.5,12.5,1.71,0,3.34-.34,4.83-.96-.31-1.22-.5-2.49-.5-3.8-.01-5.42,2.8-10.2,7.04-12.98Z"/>
  <path d="M88.15,59.65c-.33-2.93-.94-5.79-2.35-8.42-1.61-2.98-4.01-4.85-7.41-5.34-1.24-.18-2.37-.05-3.41.72-.57.42-1.18.79-1.78,1.16-4.16,2.56-8.32,2.66-12.48.3-.47.9-1.02,1.75-1.67,2.55.11.01.21,0,.32.02,4.25.62,7.49,2.93,9.62,6.88,1.42,2.63,2.25,5.56,2.7,9.51.18,1.59.25,3.22.21,5.01,0,.21-.02.41-.04.61h8.58c.03-.11.12-.09.2-.1,4.44-.43,7.62-3.85,7.71-8.3.03-1.54-.02-3.07-.19-4.6Z"/>
  <path class="cls-1" d="M62.44,40.92c0,1.37-.18,2.71-.52,4,1.38.52,2.87.82,4.44.83,6.91.02,12.56-5.64,12.53-12.53-.04-6.96-5.64-12.53-12.56-12.49-4.97.03-9.22,2.91-11.23,7.08,4.37,2.74,7.31,7.59,7.34,13.12Z"/>
  <path d="M68.9,71.98c.03-1.54-.02-3.07-.19-4.6-.33-2.93-.94-5.79-2.35-8.42-1.61-2.98-4.01-4.85-7.41-5.34-.32-.05-.63-.07-.93-.07-.88,0-1.71.22-2.47.79-.57.42-1.18.79-1.78,1.16-2.16,1.33-4.33,2-6.49,2s-4.32-.66-6.48-1.99c-.76-.47-1.51-.96-2.26-1.44-.47-.29-.96-.54-1.52-.54-.01,0-.02,0-.03,0-1.68.03-3.27.38-4.76,1.18-2.34,1.26-3.77,3.31-4.72,5.68-1.61,4-2.11,8.19-1.77,12.47.28,3.56,2.96,6.49,6.45,7.23.42.09.86.08,1.25.29h27.59c.03-.11.12-.09.2-.1,4.44-.43,7.62-3.85,7.71-8.3Z"/>
  <path class="cls-1" d="M46.91,53.46s.02,0,.03,0c6.89,0,12.53-5.65,12.49-12.53-.04-6.93-5.6-12.49-12.49-12.49-.02,0-.05,0-.07,0-6.94.04-12.49,5.61-12.47,12.52.02,6.93,5.57,12.48,12.5,12.5Z"/>
</svg>