<?xml version="1.0" encoding="UTF-8"?>
<svg id="Layer_1" xmlns="http://www.w3.org/2000/svg" viewBox="0 0 77.3 47.76">
  <path d="M20.39,0h51.97c2.73,0,4.93,2.32,4.93,5.19h0c0,2.87-2.21,5.19-4.93,5.19H20.39c-2.73,0-4.93-2.32-4.93-5.19h0c0-2.87,2.21-5.19,4.93-5.19Z"/>
  <path d="M4.93,0h0c2.73,0,4.93,2.32,4.93,5.19h0c0,2.87-2.21,5.19-4.93,5.19h0c-2.73,0-4.93-2.32-4.93-5.19h0C0,2.32,2.21,0,4.93,0Z"/>
  <path d="M4.93,18.69h0c2.73,0,4.93,2.32,4.93,5.19h0c0,2.87-2.21,5.19-4.93,5.19h0c-2.73,0-4.93-2.32-4.93-5.19h0c0-2.87,2.21-5.19,4.93-5.19Z"/>
  <path d="M4.93,37.38h0c2.73,0,4.93,2.32,4.93,5.19h0c0,2.87-2.21,5.19-4.93,5.19h0c-2.73,0-4.93-2.32-4.93-5.19h0c0-2.87,2.21-5.19,4.93-5.19Z"/>
  <path d="M20.39,18.69h51.97c2.73,0,4.93,2.32,4.93,5.19h0c0,2.87-2.21,5.19-4.93,5.19H20.39c-2.73,0-4.93-2.32-4.93-5.19h0c0-2.87,2.21-5.19,4.93-5.19Z"/>
  <path d="M20.39,37.38h51.97c2.73,0,4.93,2.32,4.93,5.19h0c0,2.87-2.21,5.19-4.93,5.19H20.39c-2.73,0-4.93-2.32-4.93-5.19h0c0-2.87,2.21-5.19,4.93-5.19Z"/>
</svg>