<?xml version="1.0" encoding="UTF-8"?>
<svg id="Layer_1" data-name="Layer 1" xmlns="http://www.w3.org/2000/svg" viewBox="0 0 94.12 95.02">
  <defs>
    <style>
      .cls-1 {
        fill: #020103;
      }
    </style>
  </defs>
  <path class="cls-1" d="M85.24,74.35c-.36.29-.47.44-.97.46-1.56.06-3.84-.41-5.5-.47-7.37-.27-16.72.05-23.55,2.96-2.81,1.2-6.26,3.83-9.39,3.04-2.68-.67-5.24-2.49-7.84-3.47-7.12-2.68-14.97-2.56-22.48-2.53-1.99.16-4.04.39-6.02.37-.31-.21-.5-.48-.46-.88V26.04c0-.82.3-1.02,1.08-.93,2.28.92,5.41,1.26,7.59,2.24.27.12.51.33.56.63l.07,40.42.31.14c9.74.15,19.89.77,28.44,5.8,1.91-.83,3.7-1.9,5.68-2.64,6.92-2.58,13.72-2.68,20.95-3.16.98-.06,2.38.44,2.31-.96V27.99c.05-.3.28-.52.55-.63,2.39-.4,5.15-1.87,7.47-2.21.52-.08.9-.12,1.2.38v48.82Z"/>
  <path class="cls-1" d="M22.09,17.81c7.44,2.73,14.78,5.84,22.18,8.72l.57.62.07,41.02c.03.36-.19.98-.56,1.09-.46.13-3.83-1.19-4.62-1.42-4.83-1.38-9.97-1.98-14.98-2.28-1.16-.07-3.4.54-3.36-1.1V18.9c-.02-.51.19-.95.71-1.08Z"/>
  <path class="cls-1" d="M71.95,17.82c.64-.06.97.51.94,1.08v45.56c.04,1.65-2.2,1.03-3.36,1.1-4.82.29-9.73.87-14.39,2.13-1.47.4-3.23,1.24-4.57,1.53-.53.12-.82.11-1.09-.42-.22-13.85-.13-27.77-.05-41.64l.57-.62,21.95-8.72Z"/>
</svg>