<?xml version="1.0" encoding="UTF-8"?>
<svg id="Layer_1" xmlns="http://www.w3.org/2000/svg" viewBox="0 0 94.12 95.02">
  <defs>
    <style>
      .cls-1 {
        letter-spacing: 0em;
      }

      .cls-2 {
        fill: #010101;
      }

      .cls-3 {
        letter-spacing: 0em;
      }

      .cls-4 {
        letter-spacing: 0em;
      }

      .cls-5 {
        fill: #a0a0a0;
        font-family: MyriadPro-Regular, 'Myriad Pro';
        font-size: 12px;
      }
    </style>
  </defs>
  <g>
    <path d="M28.85,81.65c-.51-.27-1.09-.26-1.64-.38-4.58-.97-8.11-4.82-8.48-9.5-.45-5.62.21-11.13,2.32-16.39,1.26-3.12,3.14-5.81,6.21-7.47,1.96-1.06,4.06-1.52,6.26-1.55.76-.01,1.42.32,2.05.71,1,.62,1.97,1.28,2.97,1.89,5.69,3.49,11.38,3.49,17.06-.02.79-.49,1.6-.97,2.34-1.52,1.36-1.02,2.85-1.18,4.48-.95,4.48.65,7.63,3.1,9.75,7.02,1.87,3.46,2.66,7.21,3.1,11.07.23,2.01.29,4.03.25,6.05-.13,5.85-4.3,10.34-10.14,10.91-.11.01-.23-.02-.26.13H28.85Z"/>
    <path class="cls-2" d="M63.08,29.8c.05,9.06-7.38,16.49-16.47,16.47-9.11-.02-16.41-7.32-16.43-16.43-.02-9.08,7.27-16.41,16.39-16.46,9.09-.05,16.46,7.27,16.51,16.42Z"/>
  </g>
  <text class="cls-5" transform="translate(10.57 -10.5)"><tspan x="0" y="0">N</tspan><tspan class="cls-3" x="7.9" y="0">a</tspan><tspan class="cls-1" x="13.58" y="0">vig</tspan><tspan class="cls-4" x="28.87" y="0">a</tspan><tspan x="34.61" y="0">tion bar</tspan></text>
</svg>