<?xml version="1.0" encoding="UTF-8"?>
<svg id="Layer_1" xmlns="http://www.w3.org/2000/svg" viewBox="0 0 94.12 95.02">
  <defs>
    <style>
      .cls-1 {
        fill: #020202;
      }

      .cls-2 {
        letter-spacing: -.02em;
      }

      .cls-3 {
        letter-spacing: -.01em;
      }

      .cls-4 {
        letter-spacing: 0em;
      }

      .cls-5 {
        fill: #a0a0a0;
        font-family: MyriadPro-Regular, 'Myriad Pro';
        font-size: 12px;
      }
    </style>
  </defs>
  <text class="cls-5" transform="translate(13.99 -10.5)"><tspan class="cls-2" x="0" y="0">P</tspan><tspan class="cls-3" x="6.19" y="0">r</tspan><tspan x="10" y="0">ofile sc</tspan><tspan class="cls-4" x="44.38" y="0">r</tspan><tspan x="48.18" y="0">een</tspan></text>
  <g>
    <g>
      <path class="cls-1" d="M56.4,15.85c1.04.39,1.47,1.13,1.42,2.24-.05,1.18-.02,2.37,0,3.55,0,.34-.07.47-.45.47-6.92-.01-13.84-.01-20.76,0-.38,0-.45-.13-.45-.47.02-1.18.05-2.37,0-3.55-.05-1.11.39-1.85,1.43-2.24h18.81Z"/>
      <path class="cls-1" d="M46.97,36.9c7.05,0,14.1,0,21.15-.01.53,0,.67.11.63.65-.39,5.07-.75,10.13-1.12,15.2-.31,4.31-.62,8.61-.93,12.92-.29,3.95-.57,7.9-.88,11.84-.11,1.37-1.23,2.41-2.61,2.48-.19,0-.38,0-.57,0-10.48,0-20.96,0-31.45,0-2.11,0-3.13-.99-3.27-3.1-.39-5.87-.81-11.74-1.22-17.61-.32-4.65-.62-9.29-.94-13.94-.18-2.62-.34-5.24-.55-7.86-.04-.5.07-.59.55-.59,7.07.01,14.15.01,21.22.01ZM51.7,57.43c0,4.25,0,8.51,0,12.76,0,1.35,1.06,2.21,2.3,1.91.87-.21,1.37-.97,1.37-2.1,0-8.36,0-16.72,0-25.08,0-.15,0-.3-.01-.44-.15-1.15-1.19-1.86-2.3-1.59-.84.21-1.36.94-1.36,1.97,0,4.19,0,8.38,0,12.57ZM38.61,57.48c0,2.33,0,4.66,0,6.99,0,1.93-.01,3.85,0,5.78.01,1.3,1.08,2.15,2.29,1.86.87-.21,1.37-.97,1.37-2.09,0-8.36,0-16.72,0-25.08,0-.15,0-.3-.01-.44-.12-1.02-.96-1.72-1.98-1.64-1.02.07-1.68.85-1.68,2.01,0,4.21,0,8.43,0,12.64Z"/>
    </g>
    <rect class="cls-1" x="20.49" y="24.87" width="52.99" height="9.34" rx="4.67" ry="4.67"/>
  </g>
</svg>