<?xml version="1.0" encoding="UTF-8"?>
<svg id="Layer_1" xmlns="http://www.w3.org/2000/svg" viewBox="0 0 94.12 95.02">
  <defs>
    <style>
      .cls-1 {
        fill: #010101;
      }

      .cls-2 {
        fill: #020202;
      }

      .cls-3 {
        fill: #fdfdfd;
      }
    </style>
  </defs>
  <g>
    <path class="cls-3" d="M63.12,20.87c4.38,2.67,7.92,6.19,10.63,10.54.21.33.32.3.57.05,1.06-1.08,2.14-2.16,3.22-3.22.21-.2.32-.42.26-.73-.08-1.49-.32-2.98-.78-4.44-.75-2.39-2.15-4.21-4.54-5.16-1.75-.7-3.58-1.06-5.46-1.14-.29-.01-.49.06-.7.27-1.08,1.1-2.17,2.19-3.27,3.27-.26.26-.26.37.06.56Z"/>
    <path class="cls-3" d="M34.73,48.51c.27.18.39.27.52.35,4.27,2.63,7.75,6.06,10.42,10.31.32.51.47.48.87.09,7.91-7.94,15.83-15.86,23.76-23.77.38-.37.44-.63.19-1.11-2.36-4.53-5.8-7.97-10.35-10.31-.43-.22-.66-.17-1,.16-7.55,7.57-15.12,15.14-22.68,22.7-.54.54-1.12,1.04-1.73,1.59Z"/>
    <path class="cls-3" d="M69.4,51.37c.01,5.97,0,11.94.02,17.92,0,.5-.13.62-.62.62-14.49-.01-28.99-.01-43.48,0-.49,0-.62-.1-.62-.61.02-14.51.02-29.02,0-43.53,0-.54.17-.63.66-.63,6.1.02,12.2,0,18.3.02v-8.38c-7.27,0-14.54,0-21.82,0-3.11,0-5.52,2.48-5.52,5.63,0,16.71,0,33.42,0,50.13,0,3.3,2.42,5.71,5.71,5.71,16.67,0,33.35,0,50.02,0,3.35,0,5.76-2.39,5.76-5.73,0-7.05,0-14.11,0-21.16h-8.4Z"/>
    <path class="cls-3" d="M30.86,64.29c3.1-.02,6.21-.06,9.31.02,1.03.03,1.76-.27,2.37-1.05.18-.23.26-.38.12-.68-2.38-4.72-5.92-8.26-10.64-10.64-.13-.07-.25-.17-.43-.12-.42.14-1.31,1.39-1.31,1.84,0,1.65,0,3.3,0,4.95,0,1.69.02,3.39-.01,5.08,0,.46.12.59.58.58Z"/>
    <path class="cls-1" d="M69.4,51.37c.01,5.97,0,11.94.02,17.92,0,.5-.13.62-.62.62-14.49-.01-28.99-.01-43.48,0-.49,0-.62-.1-.62-.61.02-14.51.02-29.02,0-43.53,0-.54.17-.63.66-.63,6.1.02,12.2,0,18.3.02v-8.38c-7.27,0-14.54,0-21.82,0-3.11,0-5.52,2.48-5.52,5.63,0,16.71,0,33.42,0,50.13,0,3.3,2.42,5.71,5.71,5.71,16.67,0,33.35,0,50.02,0,3.35,0,5.76-2.39,5.76-5.73,0-7.05,0-14.11,0-21.16h-8.4Z"/>
    <path class="cls-2" d="M33.78,49.55c.6-.55,1.18-1.05,1.73-1.59,7.57-7.56,16.54-16.63,24.09-24.21.33-.34.57-.38,1-.16,4.55,2.34,7.99,5.78,10.35,10.31.25.48.19.73-.19,1.11-7.93,7.91-17.26,17.34-25.17,25.28-.4.4-.55.43-.87-.09-2.67-4.24-6.15-7.68-10.42-10.31-.13-.08-.25-.17-.52-.35Z"/>
    <path class="cls-2" d="M77.8,27.5c.06.32-.05.53-.26.73-1.08,1.07-2.16,2.14-3.22,3.22-.25.25-.36.28-.57-.05-2.71-4.35-6.25-7.87-10.63-10.54-.32-.19-.33-.3-.06-.56,1.1-1.08,2.19-2.17,3.27-3.27.21-.21.41-.28.7-.27,1.88.08,3.71.44,5.46,1.14,2.39.95,3.79,2.77,4.54,5.16.46,1.46.7,2.95.78,4.44Z"/>
    <path class="cls-2" d="M30.29,58.62c0-1.65,0-3.3,0-4.95,0-.46.89-1.7,1.31-1.84.17-.06.3.05.43.12,4.72,2.37,8.26,5.92,10.64,10.64.15.3.07.44-.12.68-.61.78-1.34,1.07-2.37,1.05-3.1-.08-6.21-.04-9.31-.02-.47,0-.59-.12-.58-.58.03-1.69.01-3.39.01-5.08Z"/>
  </g>
  <path class="cls-1" d="M32.45,16.77h13.11c2.31,0,4.18,1.87,4.18,4.18h0c0,2.31-1.87,4.18-4.18,4.18h-13.11v-8.37h0Z"/>
  <path class="cls-1" d="M64.98,49.13h13.11c2.31,0,4.18,1.87,4.18,4.18h0c0,2.31-1.87,4.18-4.18,4.18h-13.11v-8.37h0Z" transform="translate(20.31 126.94) rotate(-90)"/>
</svg>