<?xml version="1.0" encoding="UTF-8"?>
<svg id="Layer_1" xmlns="http://www.w3.org/2000/svg" viewBox="0 0 94.12 95.02">
  <path d="M80.54,46.46c0-9.17.02-18.34-.01-27.51-.01-3.23-1.24-3.9-4.01-2.29-2.02,1.17-4.09,2.27-6.02,3.59-2.02,1.38-4.13,1.88-6.57,1.85-8.48-.11-16.97-.08-25.46-.03-5.96.04-9.32,3.46-9.33,9.37,0,7.18.22,14.37-.06,21.54-.22,5.67,3.59,10.5,10.28,10.22,7.61-.33,15.24,0,22.86-.1,2.27-.03,2.51,1.09,1.99,2.73-.77,2.44-2.73,3.16-5.09,3.16-7.45,0-14.9.2-22.34-.06-5-.18-9.61.37-13.65,3.56-1.83,1.44-2.23.55-2.22-1.35.04-9.95,0-19.9.02-29.85,0-3.23,1.05-4.56,4.14-5.35,1.33-.34,2.36-.9,2.07-2.42-.33-1.69-1.67-1.77-3.06-1.53-3.88.69-7.01,4.2-7.03,8.2-.07,12.11-.05,24.22-.01,36.34,0,2.51,1.31,3.27,3.53,2.07,2.28-1.23,4.53-2.54,6.7-3.96,2.03-1.33,4.15-1.83,6.59-1.8,8.4.11,16.8.06,25.2.03,6.08-.02,9.35-3.27,9.36-9.26.02-7.27.02-14.53-.01-21.8-.03-6.53-3.44-9.95-9.91-9.96-7.71-.01-15.41,0-23.12-.02-2.16,0-2.78-.92-1.96-2.89.87-2.09,2.61-2.85,4.8-2.85,6.93,0,13.86-.22,20.78.05,6.03.24,11.72-.2,16.58-4.24.17-.14.47-.15.81-.25.09.37.24.69.24,1,0,10.55.03,21.11-.01,31.66-.01,2.72-1.58,4.33-4.17,4.86-1.41.29-2.32.93-2.03,2.41.31,1.57,1.63,1.56,2.9,1.43,3.73-.38,7.08-4.03,7.21-7.99.09-2.85.03-5.71.03-8.56ZM56.4,55.77c-5.09,0-10.18,0-15.27,0-1.02,0-2.05-.17-2.05-1.41,0-1.22,1.04-1.45,2.05-1.46,2.59-.01,5.18,0,7.76,0,2.5,0,5-.01,7.5,0,1.01,0,2.06.23,2.05,1.45,0,1.21-1.04,1.43-2.06,1.43ZM44.92,39.17c1.9-.01,3.8,0,5.71,0h0c1.99,0,3.98-.02,5.96.02,1.03.02,1.98.39,1.88,1.63-.08,1.04-.92,1.36-1.88,1.36-3.89,0-7.78-.02-11.67,0-.97,0-1.79-.28-1.85-1.36-.07-1.22.77-1.63,1.85-1.64ZM40.95,46.02c5.17-.04,10.33-.04,15.5-.02.99,0,2.03.26,2.01,1.5-.01,1.2-.95,1.47-2.01,1.47-2.58-.01-5.17,0-7.75,0-2.58,0-5.17,0-7.75,0-.95,0-1.82-.26-1.89-1.32-.08-1.22.86-1.63,1.89-1.63Z"/>
</svg>