<?xml version="1.0" encoding="UTF-8"?>
<svg id="Layer_1" xmlns="http://www.w3.org/2000/svg" viewBox="0 0 94.12 95.02">
  <defs>
    <style>
      .cls-1 {
        fill: #010101;
      }

      .cls-2 {
        fill: #fff;
      }
    </style>
  </defs>
  <g>
    <path class="cls-1" d="M9.47,47.49c0-8.1-.09-16.2.03-24.3.09-6.13,5.25-11.21,11.4-11.28,7.6-.1,15.21-.05,22.82-.02,2.38,0,4.76-.18,7.13.16,5.47.77,9.82,5.57,10,11.11.09,2.78.04,5.56.03,8.35,0,2.33-1.67,4.08-3.88,4.12-2.25.04-4-1.69-4.04-4.06-.04-2.41,0-4.82,0-7.23,0-3.01-1.49-4.52-4.47-4.52-8.9,0-17.81,0-26.71,0-2.85,0-4.43,1.57-4.43,4.4,0,15.52,0,31.04,0,46.56,0,2.84,1.58,4.41,4.42,4.41,8.93,0,17.87,0,26.8,0,2.85,0,4.38-1.55,4.39-4.42,0-2.44-.02-4.89,0-7.33.03-2.02,1.24-3.52,3.12-3.96,1.67-.4,3.47.42,4.32,1.97.24.44.45.91.45,1.4,0,3.37.31,6.75-.14,10.1-.8,5.92-5.69,10.14-11.7,10.17-7.88.04-15.77.02-23.65,0-1.97,0-3.95.13-5.92-.16-5.35-.76-9.86-5.58-9.92-10.97-.1-8.16-.03-16.32-.03-24.49h0Z"/>
    <path class="cls-2" d="M35.46,52.23c-.21-.21-.51-.35-.58-.78h1.01c3.78,0,7.09,0,10.17,0v-7.89h-11.18c.07-.42.37-.57.57-.78,1.44-1.45,2.92-2.87,4.34-4.34,1.57-1.62,1.58-4.04.05-5.59-1.52-1.54-4-1.62-5.61-.05-4.03,3.95-8.03,7.93-12,11.93-1.57,1.58-1.57,3.93,0,5.51,3.97,4.01,7.97,7.99,12,11.93,1.61,1.57,4.09,1.5,5.61-.04,1.53-1.55,1.52-3.97-.05-5.59-1.42-1.47-2.9-2.89-4.34-4.34Z"/>
  </g>
  <path class="cls-1" d="M36.42,88.25l-19.77-6.04V17.6l24.76,7.56c2.8.85,4.65,3.05,4.65,5.49v52.09c0,4.09-4.97,6.92-9.65,5.49Z"/>
  <path class="cls-1" d="M85.51,44.39c-.3-.02-.6-.02-.9-.02-8.48,0-6.48,0-13.26,0h-8.83c.05-.33.29-.45.45-.61,1.14-1.15,2.3-2.27,3.43-3.43,1.24-1.28,1.24-3.19.04-4.42-1.2-1.22-3.16-1.28-4.43-.04-3.18,3.12-6.34,6.26-9.48,9.43-1.24,1.25-1.24,3.1,0,4.35,3.14,3.17,6.3,6.31,9.48,9.43,1.27,1.24,3.23,1.19,4.43-.03,1.21-1.22,1.2-3.13-.04-4.41-1.13-1.16-2.29-2.28-3.43-3.43-.16-.16-.4-.28-.46-.61h.8c2.99,0,5.6,0,8.04,0h0c6.91,0,5.02,0,13.63,0,2.08,0,3.53-1.36,3.47-3.22-.05-1.57-1.33-2.88-2.94-2.99Z"/>
</svg>