<?xml version="1.0" encoding="UTF-8"?>
<svg id="Layer_1" xmlns="http://www.w3.org/2000/svg" viewBox="0 0 94.12 95.02">
  <defs>
    <style>
      .cls-1 {
        fill: #010101;
      }
    </style>
  </defs>
  <g>
    <path class="cls-1" d="M7.51,47.49c0-8.1-.09-16.2.03-24.3.09-6.13,5.25-11.21,11.4-11.28,7.6-.1,15.21-.05,22.82-.02,2.38,0,4.76-.18,7.13.16,5.47.77,9.82,5.57,10,11.11.09,2.78.04,5.56.03,8.35,0,2.33-1.67,4.08-3.88,4.12-2.25.04-4-1.69-4.04-4.06-.04-2.41,0-4.82,0-7.23,0-3.01-1.49-4.52-4.47-4.52-8.9,0-17.81,0-26.71,0-2.85,0-4.43,1.57-4.43,4.4,0,15.52,0,31.04,0,46.56,0,2.84,1.58,4.41,4.42,4.41,8.93,0,17.87,0,26.8,0,2.85,0,4.38-1.55,4.39-4.42,0-2.44-.02-4.89,0-7.33.03-2.02,1.24-3.52,3.12-3.96,1.67-.4,3.47.42,4.32,1.97.24.44.45.91.45,1.4,0,3.37.31,6.75-.14,10.1-.8,5.92-5.69,10.14-11.7,10.17-7.88.04-15.77.02-23.65,0-1.97,0-3.95.13-5.92-.16-5.35-.76-9.86-5.58-9.92-10.97-.1-8.16-.03-16.32-.03-24.49h0Z"/>
    <path class="cls-1" d="M68.71,43.55c-.07-.42-.37-.57-.57-.78-1.43-1.45-2.9-2.87-4.32-4.34-1.57-1.62-1.57-4.04-.05-5.59,1.51-1.54,3.98-1.62,5.58-.05,4.01,3.95,7.99,7.93,11.93,11.93,1.56,1.58,1.56,3.93,0,5.51-3.95,4.01-7.93,7.99-11.93,11.93-1.6,1.57-4.07,1.5-5.58-.04-1.52-1.55-1.52-3.97.05-5.59,1.42-1.47,2.88-2.89,4.32-4.34.2-.21.5-.35.57-.78-.35,0-.68,0-1.01,0-14.77,0-29.55,0-44.32,0-2.56,0-4.34-1.72-4.27-4.08.06-1.99,1.64-3.64,3.62-3.78.37-.03.74-.02,1.11-.02,14.62,0,29.24,0,43.86,0h1.01Z"/>
  </g>
  <path class="cls-1" d="M34.46,88.25l-19.77-6.04V17.6l24.76,7.56c2.8.85,4.65,3.05,4.65,5.49v52.09c0,4.09-4.97,6.92-9.65,5.49Z"/>
</svg>