<?xml version="1.0" encoding="UTF-8"?>
<svg id="Layer_1" xmlns="http://www.w3.org/2000/svg" viewBox="0 0 94.12 95.02">
  <defs>
    <style>
      .cls-1 {
        fill: #010101;
      }
    </style>
  </defs>
  <path d="M43.95,67.38l-9.85-22.13c-.19-.04-.38-.06-.58-.06-2.2.04-4.3.5-6.26,1.55-3.07,1.66-4.96,4.35-6.21,7.47-2.12,5.25-2.77,10.77-2.32,16.39.37,4.68,3.9,8.53,8.48,9.5.55.12,1.13.11,1.64.38h6.2v-13.11h8.9Z"/>
  <rect x="38.05" y="70.38" width="18.2" height="9.37"/>
  <path d="M75.27,63.4c-.44-3.86-1.23-7.61-3.1-11.07-2.12-3.92-5.27-6.37-9.75-7.02-.85-.12-1.66-.13-2.44.03l-9.81,22.04h9.09v13.11h5.86c.03-.15.15-.12.26-.13,5.84-.57,10.01-5.06,10.14-10.91.04-2.02-.02-4.04-.25-6.05Z"/>
  <path d="M55.62,47.77s-.01,0-.02,0c-5.68,3.5-11.37,3.51-17.06.02-.01,0-.02-.02-.04-.02l8.55,19.21,8.56-19.22Z"/>
  <path class="cls-1" d="M46.62,45.11c9.08.02,16.52-7.41,16.47-16.47-.05-9.15-7.41-16.47-16.51-16.42-9.12.05-16.41,7.38-16.39,16.46.02,9.1,7.33,16.4,16.43,16.43Z"/>
</svg>