<?xml version="1.0" encoding="UTF-8"?>
<svg id="Layer_1" xmlns="http://www.w3.org/2000/svg" viewBox="0 0 94.12 95.02">
  <defs>
    <style>
      .cls-1 {
        fill: #010101;
      }

      .cls-2 {
        fill: #939393;
      }
    </style>
  </defs>
  <path d="M15.28,65.03c.37.08.77.08,1.12.26h9.62c.3-1.89.79-3.72,1.49-5.46,1.15-2.86,2.83-4.85,5.13-6.1,1.43-.77,3.04-1.19,4.78-1.27-2.28-2.3-3.72-5.43-3.82-8.89-1.6.82-3.21,1.25-4.81,1.25-1.93,0-3.86-.59-5.8-1.78-.68-.42-1.35-.86-2.02-1.29-.42-.26-.86-.48-1.36-.48,0,0-.02,0-.03,0-1.5.03-2.93.34-4.26,1.06-2.09,1.13-3.37,2.96-4.23,5.08-1.44,3.58-1.89,7.33-1.58,11.15.25,3.19,2.65,5.8,5.77,6.46Z"/>
  <path class="cls-1" d="M17.31,30.04c.02,6.19,4.98,11.16,11.18,11.18.01,0,.02,0,.03,0,2.01,0,3.9-.55,5.54-1.48.85-3.11,2.8-5.77,5.43-7.52.14-.71.22-1.45.21-2.2-.03-6.2-5.01-11.17-11.17-11.17-.02,0-.04,0-.07,0-6.2.04-11.17,5.02-11.15,11.2Z"/>
  <path d="M84.7,57.77c.03-1.38-.02-2.75-.17-4.12-.3-2.62-.84-5.18-2.11-7.53-1.44-2.67-3.59-4.33-6.63-4.77-.28-.04-.56-.06-.83-.06-.79,0-1.53.19-2.21.71-.51.38-1.05.7-1.59,1.04-1.94,1.19-3.87,1.79-5.81,1.79-1.79,0-3.58-.53-5.38-1.55-.01,3.46-1.36,6.73-3.83,9.21,0,0,0,0-.01.01.19-.02.37-.04.56-.04.36,0,.73.03,1.12.08,3.58.52,6.31,2.47,8.11,5.8,1.07,1.97,1.75,4.16,2.16,6.95h9.55c.02-.1.11-.08.18-.09,3.97-.39,6.81-3.44,6.9-7.42Z"/>
  <path class="cls-1" d="M59.48,39.73c1.63.94,3.53,1.48,5.55,1.48.01,0,.02,0,.03,0,6.17,0,11.21-5.05,11.17-11.21-.03-6.2-5.01-11.17-11.17-11.17-.02,0-.04,0-.07,0-6.2.04-11.17,5.02-11.15,11.2,0,.74.08,1.47.22,2.17,2.61,1.75,4.56,4.41,5.41,7.52Z"/>
  <path class="cls-2" d="M64.15,59.29c-1.44-2.67-3.59-4.33-6.63-4.77-.28-.04-.56-.06-.83-.06-.79,0-1.53.19-2.21.71-.51.38-1.05.7-1.59,1.04-1.94,1.19-3.87,1.79-5.81,1.79s-3.86-.59-5.8-1.78c-.68-.42-1.35-.86-2.02-1.29-.42-.26-.86-.48-1.36-.48,0,0-.02,0-.03,0-1.5.03-2.93.34-4.26,1.06-2.09,1.13-3.37,2.96-4.23,5.08-1.44,3.58-1.89,7.33-1.58,11.15.25,3.19,2.65,5.8,5.77,6.46.37.08.77.08,1.12.26h24.68c.02-.1.11-.08.18-.09,3.97-.39,6.81-3.44,6.9-7.42.03-1.38-.02-2.75-.17-4.12-.3-2.62-.84-5.18-2.11-7.53Z"/>
  <path class="cls-2" d="M35.58,43.2c.02,6.19,4.98,11.16,11.18,11.18h.03c6.17,0,11.21-5.05,11.17-11.21-.03-6.2-5.01-11.17-11.17-11.17-.02,0-.04,0-.07,0-6.2.04-11.17,5.02-11.15,11.2Z"/>
</svg>