<?xml version="1.0" encoding="UTF-8"?>
<svg id="Layer_1" xmlns="http://www.w3.org/2000/svg" viewBox="0 0 94.12 95.02">
  <path d="M71.07,44.56l-4.27-4.27s0,0,0,0c-5.34-5.35-10.68-10.7-16.1-15.97-.94-.91-1.6-1.82-1.93-2.86-.01,0-.03,0-.04,0v-7.29h2.64c.93,0,1.68-.75,1.68-1.68s-.75-1.68-1.68-1.68h-2.64v-2.83c0-.93-.75-1.68-1.68-1.68s-1.68.75-1.68,1.68v2.83h-2.64c-.93,0-1.68.75-1.68,1.68s.75,1.68,1.68,1.68h2.64v7.34c-.16.71-.53,1.32-1.13,1.92-5.64,5.57-11.24,11.18-16.86,16.76,0,.03,0,.06,0,.09l-4.33,4.33c-.61.61-.61,1.61,0,2.22s1.61.61,2.22,0l1.65-1.65s0,.02,0,.03c6.29-6.34,12.63-12.63,18.91-18.97.94-.95,1.39-1.08,2.41-.05,6.24,6.32,12.53,12.6,18.84,18.89,0,0,0,0,0,0l1.75,1.75c.61.61,1.61.61,2.22,0l.04-.04c.61-.61.61-1.61,0-2.22Z"/>
  <path d="M65.83,47.51c0-.73-.02-1.36-.63-1.96-5.82-5.76-11.62-11.55-17.39-17.36-.65-.65-.98-.56-1.57.04-5.74,5.77-11.5,11.51-17.26,17.25-.45.45-.74.88-.74,1.58.02,10.08.02,20.16,0,30.25,0,.43.34.77.77.77,1.19,0,3.57-.02,5.81-.02-1.43-.91-2.43-2.43-2.57-4.19-.23-2.94.11-5.82,1.21-8.56.66-1.63,1.64-3.04,3.24-3.9,1.02-.55,2.12-.79,3.27-.81.39,0,.74.17,1.07.37.52.33,1.03.67,1.55.99,2.97,1.82,5.94,1.82,8.91,0,.41-.26.83-.5,1.22-.8.71-.53,1.49-.62,2.34-.49,2.34.34,3.99,1.62,5.09,3.67.98,1.81,1.39,3.77,1.62,5.78.12,1.05.15,2.11.13,3.16-.04,2.06-1.06,3.78-2.65,4.78h5.82c.41,0,.73-.33.73-.74-.01-4.31,0-8.61,0-12.92,0-5.62,0-11.24,0-16.87ZM46.83,60.53c-4.76-.01-8.57-3.83-8.59-8.58-.01-4.75,3.8-8.57,8.56-8.6,4.75-.03,8.6,3.8,8.63,8.58.03,4.73-3.86,8.62-8.6,8.61Z"/>
</svg>