<?xml version="1.0" encoding="UTF-8"?>
<svg id="Layer_1" xmlns="http://www.w3.org/2000/svg" viewBox="0 0 94.12 95.02">
  <defs>
    <style>
      .cls-1 {
        fill: none;
        stroke: #000;
        stroke-miterlimit: 10;
        stroke-width: 2px;
      }
    </style>
  </defs>
  <path d="M79.16,42.68c-.41-2.01-1.89-3.22-3.94-3.31-1.46-.07-2.74-.66-3.71-1.75-1.85-2.06-2.11-4.29-.88-6.79.71-1.45.54-2.82-.44-4.07-.6-.77-1.39-1.34-2.15-1.94-2.91-2.31-6.14-4.02-9.67-5.17-.66-.21-1.32-.27-2-.15-1.28.24-2.14,1.05-2.86,2.06-1.47,2.03-4.07,2.85-6.45,2.08-1.37-.44-2.34-1.35-3.17-2.49-1.13-1.55-2.85-2.06-4.67-1.46-.95.31-1.88.67-2.8,1.07-3,1.32-5.71,3.1-8.19,5.25-1.4,1.22-2.07,3.15-1.08,4.98.6,1.11.78,2.32.59,3.6-.37,2.49-2.8,4.72-5.29,4.78-1.96.05-3.38,1.18-3.85,3.1-.44,1.83-.66,3.7-.74,5.58-.11,2.52.17,5.01.68,7.48.4,1.89,1.87,3.28,3.96,3.3,1.44.01,2.7.66,3.67,1.72,1.85,2.02,2.12,4.31.91,6.79-.72,1.47-.55,2.84.44,4.11.6.77,1.39,1.33,2.15,1.93,2.91,2.3,6.14,4.02,9.67,5.16.64.21,1.29.27,1.95.15,1.28-.23,2.14-1.04,2.88-2.04,1.16-1.57,2.72-2.36,4.67-2.38.54-.01,1.06.06,1.58.21,1.46.41,2.5,1.34,3.36,2.53,1.08,1.49,2.88,2.15,4.71,1.48.92-.34,1.85-.66,2.75-1.05,3.02-1.33,5.74-3.11,8.23-5.28,1.38-1.21,2.04-3.14,1.07-4.94-.61-1.13-.8-2.35-.6-3.65.39-2.52,2.81-4.69,5.36-4.76,1.84-.04,3.31-1.2,3.75-2.98.45-1.85.68-3.73.76-5.63.11-2.54-.17-5.04-.67-7.53ZM48.82,64.57c-8.28-.02-15.51-6.79-15.46-15.57.05-8.65,7.21-15.47,15.51-15.35,8.29-.11,15.52,6.76,15.48,15.53-.04,8.67-7.22,15.42-15.53,15.4Z"/>
  <circle class="cls-1" cx="48.86" cy="49.22" r="12.01"/>
</svg>