<?xml version="1.0" encoding="UTF-8"?>
<svg id="Layer_1" xmlns="http://www.w3.org/2000/svg" viewBox="0 0 94.12 95.02">
  <defs>
    <style>
      .cls-1 {
        fill: #030303;
      }

      .cls-2 {
        fill: #0a0a0a;
      }
    </style>
  </defs>
  <path class="cls-1" d="M34.33,69.81c12.31,0,24.61-.01,36.92.02.96,0,1.18-.22,1.18-1.18-.03-15.94-.02-31.88-.02-47.81,0-3.16-1.4-4.57-4.54-4.57-14,0-28,0-42,0h-1.73c1.21,1.51,1.3,3.04,1.29,4.64-.03,17.82-.02,35.64-.02,53.46,0,.23,0,.46,0,.69.12,2.11,1.63,3.64,3.67,3.7,1.8.05,3.38-1.53,3.5-3.58.07-1.23.03-2.46.03-3.69,0-1.61.08-1.68,1.7-1.68ZM65.96,64.32c-.34.03-.69.02-1.04.02-5.03,0-10.07,0-15.1,0-5.03,0-10.07,0-15.1,0-.35,0-.69,0-1.04-.03-.45-.05-.68-.35-.71-.77-.03-.48.22-.81.7-.9.3-.06.61-.04.92-.04,10.18,0,20.37,0,30.55,0,.27,0,.54,0,.81.02.5.05.75.38.76.85,0,.47-.24.81-.75.86ZM32.96,57.49c.02-.49.33-.76.81-.81.31-.03.61-.02.92-.02,5.07,0,10.15,0,15.22,0s10.15,0,15.22,0c.31,0,.62-.02.92.04.43.09.65.4.64.83-.02.43-.23.74-.68.79-.34.04-.69.03-1.04.03-10.11,0-20.22,0-30.33,0-.31,0-.62,0-.92-.03-.48-.05-.78-.33-.76-.83ZM60.01,22.1c.31-.02.61,0,.92,0,0,0,0-.02,0-.03.31.01.62.01.92.05,1.62.17,1.64.27,1.32,1.8-.18.86-.6.78-1.27.64-2.7-.59-4.46,1.07-4.06,3.79.28,1.88,1.87,2.93,4.08,2.4,1.16-.28,1.05.39,1.2,1.02.18.71.15,1.26-.79,1.35-1.19.12-2.38.22-3.55-.05-2.67-.61-4.3-2.86-4.08-5.6.24-3.06,2.3-5.14,5.3-5.36ZM44.51,27.57c.51-.39.65-.59.29-1.23-.84-1.53-.2-3.2,1.38-3.93,1.74-.8,4-.22,4.68,1.21.47.99.26,2.13-.59,2.95-.36.34-.77.62-1.19.96.46.5.8,1.42,1.4,1.37.55-.05.61-1.03.78-1.64.11-.38.29-.59.72-.53.63.08,1.29-.14,1.89.15.05.02-.04.35-.08.54-.21,1.02-.55,2.02-1.22,2.82-.48.57-.42.93.07,1.41.43.42.8.9,1.42,1.63-1.48-.39-2.8.5-3.91-.65-.19-.2-.42.07-.61.16-1.12.52-2.3.6-3.49.39-1.33-.23-2.38-.86-2.76-2.26-.38-1.39.13-2.51,1.22-3.34ZM33.89,22.52c.03-.37.42-.24.66-.24,2.34,0,4.68.02,7.02-.02,1.13-.02.67.79.71,1.29.04.5.27,1.14-.74,1.16-2.09.03-2.09.08-2.09,2.19,0,1.8-.04,3.6.02,5.4.02.73-.21.88-.9.87-1.96-.02-1.96.01-1.96-1.98,0-.8,0-1.61,0-2.41,0-1.07-.05-2.15.02-3.22.04-.73-.21-.98-.91-.88-.19.03-.39.03-.57,0-.43-.08-1.08.27-1.24-.22-.18-.59-.09-1.29-.03-1.94ZM33.73,38.64c.27-.03.54-.03.81-.03,10.19,0,20.38,0,30.57,0,.27,0,.54,0,.81.02.5.04.79.31.79.81,0,.49-.28.79-.76.86-.3.04-.61.01-.92.01-5.11,0-10.23,0-15.34,0-5,0-10,0-14.99,0-.31,0-.62.02-.92-.01-.48-.05-.78-.34-.8-.83-.02-.5.28-.78.77-.83ZM33.77,44.52c.3-.06.61-.02.92-.02,10.11,0,20.23,0,30.34,0,.31,0,.62-.03.92.03.46.09.76.39.75.88-.01.53-.29.87-.85.89-.65.02-1.31,0-1.96,0-4.69,0-9.38,0-14.07,0-5.04,0-10.07,0-15.11,0-.31,0-.62.02-.92-.01-.48-.05-.78-.34-.82-.82-.04-.54.3-.86.8-.95ZM33.66,50.64c.3-.04.61-.05.92-.05,10.15,0,20.3,0,30.45,0,.31,0,.62,0,.92.03.5.05.77.36.75.84-.02.48-.3.78-.79.82-.31.02-.61.01-.92.01-5.04,0-10.07,0-15.11,0-5.07,0-10.15,0-15.22,0-.35,0-.7.03-1.03-.05-.4-.09-.67-.39-.66-.83.01-.44.26-.72.7-.78Z"/>
  <path class="cls-1" d="M77.26,71.62c-14.04,0-28.07,0-42.11-.02-.74,0-.77.33-.77.9,0,2.12.35,4.32-1.26,6.08.33.3.61.19.86.19,11.54,0,23.07,0,34.61,0,.69,0,1.38-.09,2.06-.22,3.73-.7,6.56-3.5,6.95-6.86-.11-.02-.22-.07-.33-.07Z"/>
  <path class="cls-1" d="M23.69,19.46c-.14-1.89-1.76-3.28-3.67-3.23-1.92.05-3.4,1.5-3.47,3.43-.03,1,.02,1.99-.02,2.99-.02.59.14.82.77.79.92-.05,1.84-.01,2.76-.01,1,0,2-.02,2.99,0,.49.02.69-.13.67-.64-.03-1.11.05-2.23-.03-3.33Z"/>
  <path class="cls-2" d="M47.74,31.17c.2-.09.65.07.82-.29.16-.35-.27-.48-.45-.7-.26-.33-.53-.66-.85-.92-.28-.22-.4-.9-.91-.54-.41.29-.53.82-.37,1.34.25.81.84,1.12,1.77,1.1Z"/>
  <path class="cls-2" d="M47.82,25.98c.48-.02.84-.61.84-1.22,0-.55-.28-.91-.81-.91-.53,0-.81.37-.82,1.05.15.36.18,1.11.79,1.08Z"/>
</svg>