<?xml version="1.0" encoding="UTF-8"?>
<svg id="Layer_1" xmlns="http://www.w3.org/2000/svg" viewBox="0 0 94.12 95.02">
  <path d="M31.06,33.52c1.1,0,2-.9,2-2v-12c0-1.1-.9-2-2-2s-2,.9-2,2v12c0,1.1.9,2,2,2Z"/>
  <path d="M63.06,33.52c1.1,0,2-.9,2-2v-12c0-1.1-.9-2-2-2s-2,.9-2,2v12c0,1.1.9,2,2,2Z"/>
  <path d="M75.56,25.52h-8v6c0,2.43-1.97,4.4-4.4,4.4-2.43,0-4.4-1.97-4.4-4.4v-6h-23.3v6c0,2.43-1.97,4.4-4.4,4.4-2.43,0-4.4-1.97-4.4-4.4v-6h-8c-1.97-.02-3.58,1.55-3.6,3.52,0,.03,0,.07,0,.1v44.75c-.03,1.97,1.53,3.59,3.5,3.62h56.99c1.97-.03,3.53-1.65,3.5-3.62h0V29.14c.03-1.97-1.53-3.59-3.5-3.62ZM59.23,53.07c0,.94-.76,1.71-1.71,1.71h-7.61v7.61c0,.94-.76,1.71-1.71,1.71h-1.13c-.94,0-1.71-.76-1.71-1.71v-7.61h-7.61c-.94,0-1.71-.76-1.71-1.71v-1.13c0-.94.76-1.71,1.71-1.71h7.61v-7.61c0-.94.76-1.71,1.71-1.71h1.13c.94,0,1.71.76,1.71,1.71v7.61h7.61c.94,0,1.71.76,1.71,1.71v1.13Z"/>
</svg>