<?xml version="1.0" encoding="UTF-8"?>
<svg id="Layer_1" xmlns="http://www.w3.org/2000/svg" viewBox="0 0 94.12 95.02">
  <defs>
    <style>
      .cls-1 {
        fill-rule: evenodd;
      }

      .cls-1, .cls-2 {
        fill: #0f0f0f;
      }
    </style>
  </defs>
  <path class="cls-2" d="M61.87,17.41c4.64,0,8.4,3.76,8.4,8.4,0,1.55-1.25,2.8-2.8,2.8s-2.8-1.25-2.8-2.8-1.25-2.8-2.8-2.8H28.29c-1.55,0-2.8,1.25-2.8,2.8v44.78c0,1.55,1.25,2.8,2.8,2.8h33.58c1.55,0,2.8-1.25,2.8-2.8v-2.8c0-1.55,1.25-2.8,2.8-2.8s2.8,1.25,2.8,2.8v2.8c0,4.64-3.76,8.4-8.4,8.4H28.29c-4.64,0-8.4-3.76-8.4-8.4V25.81c0-4.64,3.76-8.4,8.4-8.4h33.58Z"/>
  <path class="cls-1" d="M75.3,37.57c-.84-.84-2.2-.84-3.04,0l-21.82,21.82c-.41.41-.69.94-.78,1.52l-.46,2.76,2.76-.46c.58-.1,1.11-.37,1.52-.78l21.82-21.82c.84-.84.84-2.2,0-3.04ZM68.31,33.61c3.03-3.03,7.93-3.03,10.96,0,3.02,3.03,3.02,7.93,0,10.95l-21.82,21.82c-1.24,1.24-2.83,2.06-4.56,2.34l-2.76.46c-3.79.63-7.07-2.65-6.44-6.44l.46-2.76c.29-1.73,1.11-3.32,2.34-4.56l21.82-21.82Z"/>
  <path class="cls-2" d="M31.09,34.21c0-1.55,1.25-2.8,2.8-2.8h22.39c1.55,0,2.8,1.25,2.8,2.8s-1.25,2.8-2.8,2.8h-22.39c-1.55,0-2.8-1.25-2.8-2.8Z"/>
  <path class="cls-2" d="M31.09,45.4c0-1.55,1.25-2.8,2.8-2.8h11.19c1.55,0,2.8,1.25,2.8,2.8s-1.25,2.8-2.8,2.8h-11.19c-1.55,0-2.8-1.25-2.8-2.8Z"/>
  <path class="cls-2" d="M31.09,56.6c0-1.55,1.25-2.8,2.8-2.8h2.8c1.55,0,2.8,1.25,2.8,2.8s-1.25,2.8-2.8,2.8h-2.8c-1.55,0-2.8-1.25-2.8-2.8Z"/>
</svg>