<?xml version="1.0" encoding="UTF-8"?>
<svg id="Layer_1" xmlns="http://www.w3.org/2000/svg" viewBox="0 0 94.12 95.02">
  <defs>
    <style>
      .cls-1 {
        fill: #606060;
      }
    </style>
  </defs>
  <path d="M46.24,69.05c-1.05.73-1.83,1.75-2.76,2.61-2.77,2.58-5.97,3.34-9.59,2.24-1.44-.44-2.68-1.23-3.74-2.29-6.81-6.82-13.63-13.63-20.44-20.45-3.66-3.66-3.75-9.47-.16-13.19,3.02-3.12,6.1-6.19,9.22-9.22,3.56-3.46,9.28-3.55,12.84-.08,4.84,4.69,9.55,9.51,14.32,14.27-.01.34-.28.5-.48.7-1.26,1.26-2.52,2.53-3.78,3.78-.2.2-.35.48-.69.49-4.65-4.66-9.3-9.33-13.97-13.99-1.05-1.05-2.44-1.06-3.48-.03-2.96,2.93-5.91,5.88-8.84,8.84-1.05,1.06-1.06,2.42,0,3.48,6.8,6.82,13.61,13.63,20.44,20.43,1.02,1.02,2.36,1.02,3.41.04.8-.74,1.55-1.54,2.32-2.31.12-.13.25-.26.18-.46.2.09.34-.03.46-.15,1.53-1.54,3.05-3.09,4.58-4.64.48-.47.99-.92,1.44-1.42.92-1.03.88-2.34-.08-3.34-.41-.43-.82-.84-1.24-1.26,0-.19.08-.34.21-.47,1.45-1.45,2.91-2.9,4.36-4.36.11-.11.24-.16.39-.14.39.4.78.8,1.17,1.2,3.75,3.77,3.79,9.53.1,13.37-.49.51-1.06.94-1.44,1.55-1.66,1.54-3.3,3.09-4.77,4.81Z"/>
  <path class="cls-1" d="M40.98,47.9c.34,0,.49-.29.69-.49,1.27-1.26,2.53-2.52,3.78-3.78.2-.2.47-.36.48-.7.39,0,.55-.32.77-.54,4.44-4.46,8.87-8.92,13.32-13.37,3.8-3.8,9.4-3.96,13.43-.19,3.31,3.1,6.6,6.26,9.56,9.7,2.52,2.93,2.76,6.33,1.31,9.87-.79,1.92-2.35,3.22-3.76,4.64-3.58,3.6-7.17,7.18-10.76,10.76-2.52,2.52-5.05,5.04-7.57,7.57-2.61,2.62-5.74,3.52-9.32,2.75-1.33-.29-2.57-.93-3.6-1.83-1.12-.99-2.27-1.96-3.09-3.24,1.47-1.72,3.11-3.27,4.77-4.81.88.61,1.54,1.45,2.3,2.19,1.31,1.26,2.48,1.34,3.79.08,2.19-2.1,4.34-4.25,6.48-6.4,4.49-4.5,8.92-9.06,13.48-13.49,1.42-1.38,1.38-3.03,0-4.35-2.75-2.64-5.5-5.28-8.13-8.04-1.33-1.39-2.85-1.32-4.18.04-4.29,4.37-8.64,8.67-12.96,13-.25.25-.55.46-.6.85-.15-.02-.28.02-.39.14-1.45,1.45-2.91,2.91-4.36,4.36-.13.13-.22.28-.21.47-.47.02-.71.41-.99.67-1.46,1.36-1.68,2.73-.65,3.9.46.52,1.01.97,1.51,1.46-1.53,1.55-3.05,3.1-4.58,4.64-.12.12-.26.24-.46.15-1.38-.89-2.36-2.16-3.07-3.58-1.88-3.75-1.11-8.01,1.84-11.02.43-.43.99-.77,1.18-1.4Z"/>
</svg>