<?xml version="1.0" encoding="UTF-8"?>
<svg id="Layer_1" xmlns="http://www.w3.org/2000/svg" viewBox="0 0 94.12 95.02">
  <defs>
    <style>
      .cls-1 {
        letter-spacing: 0em;
      }

      .cls-2 {
        letter-spacing: -.01em;
      }

      .cls-3 {
        letter-spacing: -.01em;
      }

      .cls-4 {
        fill: #a0a0a0;
        font-family: MyriadPro-Regular, 'Myriad Pro';
        font-size: 12px;
      }
    </style>
  </defs>
  <g>
    <path d="M23.24,59.28c3.67-3.65,7.31-7.35,11.02-10.96.79-.77.7-1.16-.03-1.87-3.73-3.66-7.41-7.38-11.12-11.07-.22-.22-.38-.61-.86-.53v25.1c.55.02.73-.4.99-.66Z"/>
    <path d="M58.61,50.27c-.46-.46-.74-.49-1.19,0-.85.93-1.75,1.81-2.67,2.68-4.05,3.85-9.8,3.9-13.9.12-.93-.85-1.81-1.75-2.68-2.67-.49-.52-.8-.68-1.41-.06-4.6,4.66-9.25,9.27-13.87,13.92-.74.74-.56,1.47.44,1.76.47.14,1,.1,1.5.1,7.66,0,15.32,0,22.97,0s15.32,0,22.97,0c.5,0,1.05.06,1.49-.11.76-.3,1.36-.72.45-1.63-4.72-4.68-9.42-9.39-14.11-14.11Z"/>
    <path d="M60.94,46.74c-.79.78-.17,1.1.27,1.54,3.74,3.74,7.47,7.48,11.22,11.21.22.22.37.62.86.52v-25.29c-.18.05-.3.05-.36.1-3.99,3.98-7.97,7.98-11.99,11.93Z"/>
    <path d="M23.7,28.66c-.58.07-1.08.33-1.28.91-.2.56.33.8.63,1.09,6.56,6.55,13.12,13.1,19.71,19.61,2.91,2.88,7.11,2.91,10.01.04,6.62-6.56,13.19-13.17,19.78-19.76.29-.29.86-.52.58-1.09-.23-.47-.69-.74-1.21-.8-.45-.05-.91-.03-1.36-.03-7.61,0-15.21,0-22.82,0-7.61,0-15.21,0-22.82,0-.4,0-.81-.03-1.21.02Z"/>
  </g>
  <text class="cls-4" transform="translate(120.14 -10.5)"><tspan class="cls-2" x="0" y="0">L</tspan><tspan x="5.5" y="0">o</tspan><tspan class="cls-1" x="12.08" y="0">g</tspan><tspan x="18.72" y="0">in sc</tspan><tspan class="cls-3" x="40.86" y="0">r</tspan><tspan x="44.66" y="0">een</tspan></text>
</svg>