<?xml version="1.0" encoding="UTF-8"?>
<svg id="Layer_1" xmlns="http://www.w3.org/2000/svg" viewBox="0 0 94.12 95.02">
  <defs>
    <style>
      .cls-1 {
        letter-spacing: 0em;
      }

      .cls-2 {
        fill: #020202;
      }

      .cls-3 {
        letter-spacing: -.01em;
      }

      .cls-4 {
        letter-spacing: -.01em;
      }

      .cls-5 {
        fill: #a0a0a0;
        font-family: MyriadPro-Regular, 'Myriad Pro';
        font-size: 12px;
      }
    </style>
  </defs>
  <path class="cls-2" d="M75.51,36.86s0-.01-.01-.02c-.53-.81-1.72-.79-2.26,0-2.47,3.69-5.33,7.05-8.81,9.88-5.55,4.53-11.79,7.05-19.02,6.57-5.36-.36-9.99-2.62-14.2-5.83-4.03-3.07-7.41-6.75-10.32-10.85-.54-.76-1.69-.76-2.23,0-.09.12-.17.24-.26.37-.39.56-.18.92.11,1.37,3.39,5.26,7.42,9.95,12.44,13.71,4.28,3.21,8.98,5.47,14.42,5.83,7.34.48,13.67-2.05,19.31-6.57,4.67-3.75,8.24-8.41,11.25-13.54v-.51c-.26-.02-.32-.26-.43-.42Z"/>
  <text class="cls-5" transform="translate(-88.05 -10.5)"><tspan class="cls-3" x="0" y="0">L</tspan><tspan x="5.5" y="0">o</tspan><tspan class="cls-1" x="12.08" y="0">g</tspan><tspan x="18.72" y="0">in sc</tspan><tspan class="cls-4" x="40.86" y="0">r</tspan><tspan x="44.66" y="0">een</tspan></text>
  <g>
    <path d="M47.52,63.14h0c-.83,0-1.5-.67-1.5-1.5v-5.64h3v5.64c0,.83-.67,1.5-1.5,1.5Z"/>
    <path d="M57.74,60.39l-1.23-3.95c-.25-.79.19-1.63.98-1.88l1.43-.45,1.68,5.39c.25.79-.19,1.63-.98,1.88h0c-.79.25-1.63-.19-1.88-.98Z"/>
    <path d="M68.25,55.01l-3.97-4.01,2.13-2.11,3.97,4.01c.58.59.58,1.54,0,2.12h0c-.59.58-1.54.58-2.12,0Z"/>
  </g>
  <g>
    <path d="M37.31,60.39l1.23-3.95c.25-.79-.19-1.63-.98-1.88l-1.43-.45-1.68,5.39c-.25.79.19,1.63.98,1.88h0c.79.25,1.63-.19,1.88-.98Z"/>
    <path d="M26.79,55.01l3.97-4.01-2.13-2.11-3.97,4.01c-.58.59-.58,1.54,0,2.12h0c.59.58,1.54.58,2.12,0Z"/>
  </g>
</svg>