<?xml version="1.0" encoding="UTF-8"?>
<svg id="Layer_1" xmlns="http://www.w3.org/2000/svg" viewBox="0 0 94.12 95.02">
  <defs>
    <style>
      .cls-1 {
        letter-spacing: 0em;
      }

      .cls-2 {
        letter-spacing: -.01em;
      }

      .cls-3 {
        letter-spacing: -.01em;
      }

      .cls-4 {
        fill: #a0a0a0;
        font-family: MyriadPro-Regular, 'Myriad Pro';
        font-size: 12px;
      }
    </style>
  </defs>
  <g>
    <path d="M38.77,61.49s-1.36-1.37-1.37-1.37l-12.3,12.3,6.82,6.96c.08.08.16.15.25.21,0,0,0,0,.01.01,0,0,0,0,0,0,.8.58,1.92.53,2.65-.18l1.2-1.23c.82-.84.82-2.18,0-3.02l-2.81-2.76,3.88-3.78,2.64,2.57c.86.88,2.28.88,3.15.01.21-.21.43-.43.64-.65,1.54-1.55,1.5-2.85-.09-4.41-1.57-1.54-3.09-3.13-4.67-4.66Z"/>
    <path d="M55.68,20.02c-1.28,0-2.52.15-3.71.44-.04,0-.08,0-.11.01-8.87,2.04-14.35,11.46-11.72,20.18.05.17.06.36.16.5,1.15,1.74.51,2.89-.91,4.27-7.21,7.03-14.29,14.2-21.43,21.31-1.1,1.1-1.88,2.3-1.87,3.92,0,2.04,1.06,3.77,2.84,4.52,1.97.83,3.79.56,5.39-.86,0,0,.01-.01.02-.02l14.25-14.26s0,0,0,0c.07-.07.14-.14.21-.2l6.12-6.12c.91-.92,1.82-1.83,2.71-2.75.62-.64,1.06-.31,1.62-.07,9.24,4.05,20.22-1.78,22-11.44.25-1.12.39-2.29.39-3.48,0-8.82-7.15-15.96-15.96-15.96ZM61.64,36.85c-.28,2.87-2.6,5.19-5.47,5.47-3.87.38-7.1-2.85-6.72-6.72.28-2.87,2.6-5.19,5.47-5.47,3.87-.38,7.1,2.85,6.72,6.72Z"/>
  </g>
  <text class="cls-4" transform="translate(15.75 -10.5)"><tspan class="cls-2" x="0" y="0">L</tspan><tspan x="5.5" y="0">o</tspan><tspan class="cls-1" x="12.08" y="0">g</tspan><tspan x="18.72" y="0">in sc</tspan><tspan class="cls-3" x="40.86" y="0">r</tspan><tspan x="44.66" y="0">een</tspan></text>
</svg>