<?xml version="1.0" encoding="UTF-8"?>
<svg id="Layer_1" xmlns="http://www.w3.org/2000/svg" viewBox="0 0 94.12 95.02">
  <path d="M50.55,56.71c-.53,7.08-2.17,9.58-6.15,9.58-3.97,0-5.62-2.51-6.18-9.8-4.11,2.43-8.39,4.81-11.56-.84-1.88-3.35-.53-5.5,5.58-9.68-1.68-1.42-3.98-1.95-5.19-3.86-1.31-2.06-1.39-4.21-.19-6.31,1.88-3.31,4.66-3.46,11.37-.58.39-2.98-.3-6.31,2.67-8.39,1.17-.82,2.44-1.13,3.82-1.07,3.85.18,5.22,2.39,5.88,9.74,4.01-2.47,8.19-4.75,11.45.61,1.96,3.21.69,5.35-5.26,9.89,5.94,4.5,7.13,6.86,5.16,10.19-1.94,3.28-4.59,3.43-11.38.52Z"/>
</svg>