<?xml version="1.0" encoding="UTF-8"?>
<svg id="Layer_1" xmlns="http://www.w3.org/2000/svg" viewBox="0 0 94.12 95.02">
  <defs>
    <style>
      .cls-1 {
        letter-spacing: 0em;
      }

      .cls-2 {
        fill: #020202;
      }

      .cls-3 {
        letter-spacing: -.01em;
      }

      .cls-4 {
        letter-spacing: -.01em;
      }

      .cls-5 {
        fill: #a0a0a0;
        font-family: MyriadPro-Regular, 'Myriad Pro';
        font-size: 12px;
      }
    </style>
  </defs>
  <g>
    <path class="cls-2" d="M75.94,46.64c-3.01,5.13-6.58,9.79-11.25,13.54-5.64,4.53-11.97,7.05-19.31,6.57-5.44-.36-10.14-2.62-14.42-5.83-5.02-3.77-9.06-8.45-12.44-13.71-.29-.44-.5-.81-.11-1.37,5.17-7.45,11.5-13.56,20.35-16.29,10.12-3.12,19.25-.69,27.42,5.8,3.68,2.93,6.77,6.4,9.34,10.34.11.16.16.4.43.42v.51ZM59.04,47.53c0-6.61-5.38-12.01-11.98-12.01-6.67,0-12.11,5.4-12.1,12.04,0,6.58,5.42,12.01,12,12.01,6.68,0,12.08-5.37,12.08-12.04Z"/>
    <path class="cls-2" d="M47.04,54.72c-4.17,0-7.21-3.03-7.21-7.19,0-4.15,3.05-7.18,7.22-7.17,4.08,0,7.13,3.05,7.14,7.13,0,4.18-3.01,7.23-7.16,7.24Z"/>
  </g>
  <text class="cls-5" transform="translate(-88.05 -10.5)"><tspan class="cls-3" x="0" y="0">L</tspan><tspan x="5.5" y="0">o</tspan><tspan class="cls-1" x="12.08" y="0">g</tspan><tspan x="18.72" y="0">in sc</tspan><tspan class="cls-4" x="40.86" y="0">r</tspan><tspan x="44.66" y="0">een</tspan></text>
</svg>